<?xml version="1.0" encoding="utf-8"?>
<!-- Generator: Adobe Illustrator 23.1.0, SVG Export Plug-In . SVG Version: 6.00 Build 0)  -->
<svg version="1.1" id="Layer_1" xmlns="http://www.w3.org/2000/svg" xmlns:xlink="http://www.w3.org/1999/xlink" x="0px" y="0px"
	 viewBox="0 0 24 24" style="enable-background:new 0 0 24 24;" xml:space="preserve">
<style type="text/css">
	.st0{fill:none;}
	.st1{fill:#D11900;}
</style>
<g>
	<path class="st0" d="M0,0h24v24H0V0z"/>
	<path class="st1" d="M12,22C6.5,22,2,17.5,2,12S6.5,2,12,2s10,4.5,10,10S17.5,22,12,22z M18.4,16v-0.1c0-0.9,0-1.3-0.7-1.7
		c-0.2-0.1-0.4-0.2-0.6-0.3c-0.4-0.2-0.6-0.3-0.9-0.8c0-0.1-0.1-0.1-0.1-0.2c-0.3-0.5-0.6-0.9-1.5-0.8c-1.9,0.3-2,0.6-2.1,1.2l0,0.1
		c-0.1,0.8-0.1,1.1,0.2,1.4c1.3,1.3,2,2.3,2.3,2.8c0.1,0.3,0.4,1.1,0.2,1.9c1.2-0.5,2.3-1.3,3.2-2.2C18.3,17,18.4,16.5,18.4,16z
		 M12,3.8c-2.3,0-4.4,1-5.9,2.5c0.2,0.1,0.3,0.3,0.4,0.5c0.2,0.5,0.2,0.9,0.2,1.3c0,0.3,0,0.6,0.1,0.9C7,9.4,7.6,9.5,8.2,9.6
		c0.2,0,0.4,0.1,0.6,0.1c0.5,0.1,0.9,0.6,1.2,1c0.1,0.2,0.3,0.4,0.4,0.4c0.1,0,0.2-0.2,0.3-0.5c0.1-0.2,0-0.4,0-0.5
		c-0.6-0.7-0.5-1.9-0.4-2.4C10.5,7,11.4,7.1,12,7.1c0.2,0,0.4,0,0.6,0c0.6-0.1,0.8-1,0.9-1.2c0.3-0.4,1.2-1,1.7-1.4
		C14.3,4.1,13.1,3.8,12,3.8z"/>
</g>
</svg>
