<?xml version="1.0" encoding="utf-8"?>
<!-- Generator: Adobe Illustrator 23.1.0, SVG Export Plug-In . SVG Version: 6.00 Build 0)  -->
<svg version="1.1" id="Layer_1" xmlns="http://www.w3.org/2000/svg" xmlns:xlink="http://www.w3.org/1999/xlink" x="0px" y="0px"
	 viewBox="0 0 24 24" style="enable-background:new 0 0 24 24;" xml:space="preserve">
<style type="text/css">
	.st0{fill:none;}
	.st1{fill:#FF800A;}
	.st2{fill:#D11900;}
</style>
<g>
	<path class="st0" d="M0,0h24v24H0V0z"/>
	<path class="st1" d="M12,2C6.5,2,2,6.5,2,12s4.5,10,10,10s10-4.5,10-10S17.5,2,12,2z M12,20c-4.4,0-8-3.6-8-8s3.6-8,8-8s8,3.6,8,8
		S16.4,20,12,20z"/>
	<path class="st2" d="M12,15c-1.7,0-3-1.3-3-3s1.3-3,3-3s3,1.3,3,3S13.7,15,12,15z M13.9,13.2L13.9,13.2c0-0.3,0-0.4-0.2-0.5
		c-0.1,0-0.1-0.1-0.2-0.1c-0.1-0.1-0.2-0.1-0.3-0.2c0,0,0,0,0-0.1C13.1,12.1,13,12,12.7,12c-0.6,0.1-0.6,0.2-0.6,0.4l0,0
		c0,0.2,0,0.3,0.1,0.4c0.4,0.4,0.6,0.7,0.7,0.9c0,0.1,0.1,0.3,0.1,0.6c0.4-0.1,0.7-0.4,0.9-0.7C13.9,13.5,13.9,13.4,13.9,13.2z
		 M12,9.5c-0.7,0-1.3,0.3-1.8,0.8c0.1,0,0.1,0.1,0.1,0.2c0.1,0.1,0.1,0.3,0.1,0.4c0,0.1,0,0.2,0,0.3c0,0.1,0.2,0.1,0.4,0.2
		c0.1,0,0.1,0,0.2,0c0.2,0,0.3,0.2,0.4,0.3c0,0,0.1,0.1,0.1,0.1c0,0,0.1-0.1,0.1-0.1c0-0.1,0-0.1,0-0.2c-0.2-0.2-0.2-0.6-0.1-0.7
		c0.1-0.2,0.3-0.2,0.5-0.2c0.1,0,0.1,0,0.2,0c0.2,0,0.2-0.3,0.3-0.4c0.1-0.1,0.4-0.3,0.5-0.4C12.7,9.6,12.3,9.5,12,9.5z"/>
</g>
</svg>
