<?xml version="1.0" encoding="utf-8"?>
<!-- Generator: Adobe Illustrator 23.1.0, SVG Export Plug-In . SVG Version: 6.00 Build 0)  -->
<svg version="1.1" id="Layer_1" xmlns="http://www.w3.org/2000/svg" xmlns:xlink="http://www.w3.org/1999/xlink" x="0px" y="0px"
	 viewBox="0 0 24 24" style="enable-background:new 0 0 24 24;" xml:space="preserve">
<style type="text/css">
	.st0{fill:none;}
	.st1{fill:#D1197A;}
</style>
<g>
	<path class="st0" d="M0,0h24v24H0V0z"/>
	<path class="st1" d="M5.3,15.9C5.1,15,5,14,5,13c0-5.1,2.9-9.4,7-11.2c4.1,1.7,7,6.1,7,11.2c0,1-0.1,2-0.3,2.9l2,1.8
		c0.2,0.2,0.2,0.4,0.1,0.6l-2.5,4.1c-0.1,0.2-0.4,0.3-0.7,0.2c0,0-0.1,0-0.1-0.1l-2.3-2.3c-0.2-0.2-0.4-0.3-0.7-0.3H9.4
		c-0.3,0-0.5,0.1-0.7,0.3l-2.3,2.3c-0.2,0.2-0.5,0.2-0.7,0c0,0-0.1-0.1-0.1-0.1l-2.5-4.1c-0.1-0.2-0.1-0.5,0.1-0.6
		C3.3,17.7,5.3,15.9,5.3,15.9z M12,13c1.1,0,2-0.9,2-2s-0.9-2-2-2s-2,0.9-2,2S10.9,13,12,13z"/>
</g>
</svg>
